<svg id="_1" data-name="???? 1" xmlns="http://www.w3.org/2000/svg" xmlns:xlink="http://www.w3.org/1999/xlink" viewBox="0 0 1407.5 869.8"><defs><style>.cls-1,.cls-2,.cls-7{fill:none;}.cls-2,.cls-7{stroke:#ffed00;}.cls-2,.cls-6,.cls-7{stroke-linecap:round;stroke-linejoin:round;}.cls-2{stroke-width:1.69px;}.cls-2,.cls-3,.cls-4,.cls-5,.cls-6,.cls-7,.cls-8{fill-rule:evenodd;}.cls-3{fill:url(#GradientFill_1);}.cls-4{fill:#ffed00;}.cls-5,.cls-6{fill:#2D5BFF;}.cls-6{stroke:#fff;stroke-width:2.99px;}.cls-7{stroke-width:3.04px;}.cls-8{fill:url(#GradientFill_3);}</style><linearGradient id="GradientFill_1" x1="881.53" y1="144.35" x2="731.71" y2="270.07" gradientUnits="userSpaceOnUse"><stop offset="0" stop-color="#d3940a"/><stop offset="0.01" stop-color="#c99b0e"/><stop offset="0.12" stop-color="#d69707"/><stop offset="0.26" stop-color="#fef9d1"/><stop offset="0.33" stop-color="#d29b0a"/><stop offset="0.4" stop-color="#d59808"/><stop offset="0.44" stop-color="#fff"/><stop offset="0.5" stop-color="#d29b0a"/><stop offset="0.63" stop-color="#fff"/><stop offset="0.69" stop-color="#d29b0a"/><stop offset="0.76" stop-color="#fff"/><stop offset="0.83" stop-color="#d29b0a"/><stop offset="1" stop-color="#cab603"/></linearGradient><linearGradient id="GradientFill_3" x1="8531.18" y1="-4924.87" x2="-9725.56" y2="7389.46" gradientUnits="userSpaceOnUse"><stop offset="0" stop-color="#d3940a"/><stop offset="0.01" stop-color="#c99b0e"/><stop offset="0.12" stop-color="#d69707"/><stop offset="0.26" stop-color="#fef9d1"/><stop offset="0.33" stop-color="#d29b0a"/><stop offset="0.4" stop-color="#d59808"/><stop offset="0.44" stop-color="#fff"/><stop offset="0.5" stop-color="#d29b0a"/><stop offset="0.63" stop-color="#fff"/><stop offset="0.69" stop-color="#d29b0a"/><stop offset="0.76" stop-color="#fff"/><stop offset="0.87" stop-color="#c99b0e"/><stop offset="0.89" stop-color="#d29b0a"/><stop offset="1" stop-color="#fff"/></linearGradient></defs><title>antares</title><rect class="cls-1" width="1407.5" height="869.79"/><path class="cls-2" d="M939.3,162.5l4.4,14.2,14.1,4.4-12.1,8.6.2,14.8L934,195.7l-14.1,4.7,4.8-14.1-8.9-11.9,14.9.2,8.6-12.1Zm-62.9-27.7,10.4,10,14.1-2.9-6.3,13,7,12.5-14.2-2L877.7,176l-2.6-14.2-13-6,12.7-6.7,1.6-14.3ZM698,187.7l6.2,13.6,14.7,2.7-11,10.1,2,14.8-13-7.4L683.5,228l2.9-14.6-10.3-10.8,14.8-1.7,7.1-13.2Zm30.3-10.4,4.8,2.4,4.7-2.6-.8,5.3,3.9,3.7-5.3.9-2.3,4.8-2.4-4.7-5.4-.7,3.8-3.9-1-5.2Zm-72.1,45.8,4.3,2.2,4.3-2.3-.8,4.7,3.5,3.4-4.7.7-2.1,4.4-2.2-4.3-4.8-.6,3.4-3.4-.9-4.8ZM769.9,190l1.7,12.7,11.4,5.9-11.6,5.5-2.1,12.6-8.8-9.2-12.6,1.9,6.1-11.3-5.8-11.4,12.6,2.3,9.1-9Zm27.4-27.8,14.9,5.7,13.2-9.1-.8,16,12.7,9.8-15.4,4.2-5.4,15-8.7-13.4-16-.4,10-12.5-4.5-15.3Zm59.1,18.1,5.9,5.5,8-1.7-3.5,7.4,4.1,7-8-1-5.5,6-1.5-7.9-7.4-3.3,7.1-3.9Z" transform="translate(62.4 88)"/><path class="cls-3" d="M939.3,162.5l4.4,14.2,14.1,4.4-12.1,8.6.2,14.8L934,195.7l-14.1,4.7,4.8-14.1-8.9-11.9,14.9.2,8.6-12.1Zm-62.9-27.7,10.4,10,14.1-2.9-6.3,13,7,12.5-14.2-2L877.7,176l-2.6-14.2-13-6,12.7-6.7,1.6-14.3ZM698,187.7l6.2,13.6,14.7,2.7-11,10.1,2,14.8-13-7.4L683.5,228l2.9-14.6-10.3-10.8,14.8-1.7,7.1-13.2Zm30.3-10.4,4.8,2.4,4.7-2.6-.8,5.3,3.9,3.7-5.3.9-2.3,4.8-2.4-4.7-5.4-.7,3.8-3.9-1-5.2Zm-72.1,45.8,4.3,2.2,4.3-2.3-.8,4.7,3.5,3.4-4.7.7-2.1,4.4-2.2-4.3-4.8-.6,3.4-3.4-.9-4.8ZM769.9,190l1.7,12.7,11.4,5.9-11.6,5.5-2.1,12.6-8.8-9.2-12.6,1.9,6.1-11.3-5.8-11.4,12.6,2.3,9.1-9Zm27.4-27.8,14.9,5.7,13.2-9.1-.8,16,12.7,9.8-15.4,4.2-5.4,15-8.7-13.4-16-.4,10-12.5-4.5-15.3Zm59.1,18.1,5.9,5.5,8-1.7-3.5,7.4,4.1,7-8-1-5.5,6-1.5-7.9-7.4-3.3,7.1-3.9Z" transform="translate(62.4 88)"/><polygon class="cls-4" points="369.7 425.9 376.1 433.1 385.7 432 380.8 440.3 384.9 449.1 375.4 447 368.4 453.6 367.4 443.9 359 439.2 367.8 435.4 369.7 425.9"/><polygon class="cls-4" points="240.6 449.3 244.6 446.3 244.5 441.3 248.6 444.2 253.3 442.5 251.8 447.3 254.9 451.3 249.9 451.3 247 455.5 245.4 450.7 240.6 449.3"/><polygon class="cls-4" points="253.6 436 255.8 433.4 255 430 258.2 431.3 261.1 429.5 260.8 432.9 263.5 435.2 260.1 435.9 258.8 439.2 257 436.2 253.6 436"/><polygon class="cls-4" points="220.4 489.1 223.6 485.4 222.4 480.6 226.9 482.5 231.1 479.9 230.7 484.8 234.5 487.9 229.7 489.1 227.9 493.7 225.3 489.4 220.4 489.1"/><path class="cls-5" d="M334.9,424.8l-62.7,12.1c-9.4,1.8-14.3.4-14.3-4.4,0-12.1.1-24.2.2-36.3l-81.4,13.9c-9.3,11.7-18.8,23.5-28.2,35.5-2.2,2.9-3.3,5-3.3,6,0,3.7,2.9,4.9,8.7,3.8-.6,1.6-1.3,3.2-1.9,4.7L85.1,473c-5,1-9,1.2-11.9.4s-4.1-2.1-4.1-4,1.3-4.8,3.2-7.1c27.4-31.9,53.9-63.5,79.8-94.3l74.3-87.7c1.8-2.1,2.6-3.8,2.6-5.2,0-4-3.9-5.6-11.4-4.8.6-1.5,1-2.9,1.7-4.4l79.9-8.3a28.8,28.8,0,0,1,14.3,1.6c3.8,1.6,5.7,4.2,5.8,7.6.6,24.8,1.6,49.7,2.3,74.5s1.9,49.5,2.7,74.1a5.1,5.1,0,0,0,3.1,4.8c2.2,1,5,1.1,8.6.5a22.8,22.8,0,0,0-1.1,4.1Zm-76.8-116-26.5,32.6q-13.7,16.7-27.2,33.5l53.7-8.4V308.8Zm184.3,87c2.3-7.2,4.6-14.4,6.8-21.5s4.4-14.4,6.6-21.5l-45.3,7.5c-4.5,13.4-9,26.8-13.3,40.3a12.2,12.2,0,0,0-.8,4.1c0,2.6,1.8,3.8,5.3,3.4a26.8,26.8,0,0,1-.7,2.7l-40.1,7.7c-4.8.9-7.5-.1-7.2-3.2a32,32,0,0,1,1-4.2c5.3-16.3,10.5-32.6,15.8-48.8l15.8-48.1a12.2,12.2,0,0,0,.8-4.1c0-2.7-1.8-3.9-5.5-3.8.3-.8.4-1.7.8-2.6l39.2-5.3c4.5-.5,6.9.6,6.7,3.5s-.7,2.7-.8,4.1L417,338.5l45.3-7c3-9.4,6.1-18.6,9-27.9a12.9,12.9,0,0,0,.7-3.9c0-2.6-1.6-3.8-5-3.6l.6-2.5,35.9-4.8c4.1-.6,6.4.5,6.2,3.3a18.3,18.3,0,0,1-.9,3.9c-4.6,14.8-9.1,29.8-13.8,44.7s-9.3,30.2-13.8,45.4a13.4,13.4,0,0,0-.7,3.9c0,2.6,1.7,3.7,4.8,3.4l-.6,2.5-36.5,7c-4.5.9-6.8-.1-6.7-3,.1-1.4.7-2.7.9-4.1ZM588.5,295.2c-3.6,12.4-7.4,24.8-11,37.3s-7.4,25-10.9,37.6a15.4,15.4,0,0,0-.6,3.8c-.1,2.4,1.4,3.4,4.4,3.2a21,21,0,0,0-.6,2.4l-33.1,6.3c-4,.8-6.2-.1-6-2.9a27.4,27.4,0,0,1,.9-3.9c3.9-13.2,7.8-26.5,11.6-39.7s7.7-26.2,11.6-39.2l-19,2.7a26.3,26.3,0,0,0-8.1,2.3,18.9,18.9,0,0,0-5.9,4.8l-3.7.6c1.7-5.4,3.4-10.8,5.2-16.2,1.1-3.4,2.6-5.8,4.7-7.1s6.3-2.4,12.2-3.2l68.2-9.2a21.8,21.8,0,0,0,7.3-1.9,17.7,17.7,0,0,0,5.3-4.5l3.2-.4c-1.5,5-2.9,10.1-4.4,15.1-1,3.3-2.5,5.5-4.5,6.8s-5.6,2.3-11,3.1l-15.8,2.2Zm104.6,60.5a17.4,17.4,0,0,1,.5-2.2,5.5,5.5,0,0,1-3.7-.4,2.9,2.9,0,0,1-1.5-2.7c-.4-13.3-.7-26.6-1-40s-.8-26.7-1-40.1a4.5,4.5,0,0,0-2.6-4,10,10,0,0,0-6.1-.9L644,270c-.3.7-.5,1.5-.8,2.3,3.2-.5,4.8.4,4.8,2.5a5.3,5.3,0,0,1-1.2,2.8l-30.6,45.3c-10.5,15.5-20.8,31.3-31.7,47a6,6,0,0,0-1.4,3.6c-.1,1,.6,1.6,1.7,2.1a9,9,0,0,0,4.7.1l26.7-5.2a11.9,11.9,0,0,1,.7-2.3c-2.4.4-3.5-.3-3.4-2.2a6.5,6.5,0,0,1,1.2-3l11.5-17.9L660,339c0,6.5-.1,12.9-.1,19.3,0,2.5,1.9,3.4,6,2.6l27.2-5.2Zm-33-63c0,10.2,0,20.4-.1,30.6l-22.5,3.8,22.6-34.4Zm78.1,22.7-6.6,23.9a14.7,14.7,0,0,0-.4,3.3c0,2.2,1.1,3.2,3.5,3a16,16,0,0,1-.5,2.1l-26.9,5.2c-3.2.7-4.9-.2-4.8-2.7s.5-2.3.6-3.5c3.7-13.3,7.3-26.5,10.9-39.7s7.1-26.1,10.5-39.2a14.7,14.7,0,0,0,.6-3.2c0-2-1.3-3-3.7-2.9a22.5,22.5,0,0,1,.5-2.2l50.6-6.7c8.3-1.2,14.4-.4,18.4,2.1s6,6.9,6,13.3a51,51,0,0,1-2.1,13c-2.4,9.2-5.9,16-10.3,20.2s-12.9,8.3-23.3,10.1l-23,3.9Zm11.6-44.8-7.6,29.2,11.8-1.9c4.9-.8,8.3-2.3,10.2-4.6s3.6-6.4,5.2-12.6a22,22,0,0,0,.9-6.2c0-2.4-.7-4.1-2.3-4.9s-4.6-.9-8.8-.3l-9.4,1.3Zm67.5-23.8,61.5-8.3c-.7,2.8-1.3,5.6-2.1,8.4a7,7,0,0,1-3.1,4.4c-1.3.8-3.7,1.5-7.1,2l-23.7,3.4c-1.6,5.9-3.1,11.8-4.7,17.8l30.8-4.8-2.1,8.5a7.6,7.6,0,0,1-3,4.9,15.5,15.5,0,0,1-6.3,2.1L840.8,288a13,13,0,0,0-5.1,1.7,7.1,7.1,0,0,0-2.3,4.1l-5.1,19.9,24.7-4.4a16,16,0,0,0,5.3-1.9,11.8,11.8,0,0,0,3.8-3.9l2.3-.4-3.3,13.7c-.6,2.8-1.7,4.7-3.1,5.8s-4,2-8.1,2.8l-43.6,8.4c-4,.8-6.1-.1-6-2.8a10.1,10.1,0,0,1,.4-2.3l9.3-37.3,9.6-36.8a13.3,13.3,0,0,0,.5-3c0-1.9-1.1-2.8-3.3-2.8.2-.7.3-1.3.5-2Zm98.3,51.1,13.1-2.4a12.7,12.7,0,0,0,4.8-1.7,13.1,13.1,0,0,0,3.3-3.6l2.2-.4c-.9,3.7-1.7,7.4-2.5,11a12.1,12.1,0,0,1-3.7,6.8,16.3,16.3,0,0,1-7.4,3.3l-20.5,3.9c-7.8,1.5-13.6,1-17.3-1.6s-5.5-7.9-5.4-16c0-5.1,1.2-12,3.6-20.5a143.4,143.4,0,0,1,7.7-21.4,48.5,48.5,0,0,1,8.3-13.3c4.7-5,11.6-8.1,20.6-9.3l25.6-3.4c-.8,2.4-1.4,4.9-2,7.3a10.8,10.8,0,0,1-3,5.4,12.7,12.7,0,0,1-6.5,2.4l-7.6,1.1c-6,.8-10.3,3-13,6.5s-6.1,11.8-8.8,23.4c-1.9,7.9-2.9,13.4-2.9,16.7s.8,5,2.6,5.8S911.4,298.6,915.6,297.9Z" transform="translate(62.4 88)"/><path class="cls-6" d="M334,421.5l-62.8,12.1c-9.4,1.8-14.2.4-14.2-4.4,0-12.1.1-24.2.1-36.4l-81.3,14c-9.3,11.7-18.8,23.5-28.2,35.5-2.3,2.8-3.3,4.9-3.3,6,0,3.7,2.9,4.9,8.7,3.8-.6,1.6-1.3,3.2-1.9,4.7L84.2,469.7c-5,1-9,1.1-11.9.4s-4.2-2.1-4.2-4,1.3-4.9,3.3-7.1c27.4-31.9,53.8-63.6,79.8-94.3L225.5,277c1.8-2.1,2.5-3.8,2.5-5.2,0-4-3.8-5.7-11.3-4.9.5-1.4,1-2.9,1.7-4.4l79.9-8.3a29.5,29.5,0,0,1,14.2,1.7c3.9,1.6,5.7,4.2,5.8,7.5.7,24.9,1.6,49.8,2.4,74.5s1.9,49.5,2.6,74.2a5.4,5.4,0,0,0,3.2,4.8c2.2,1,5,1.1,8.6.5a20.8,20.8,0,0,0-1.1,4.1Zm-76.8-116-26.6,32.6-27.1,33.5,53.7-8.4V305.5Zm184.3,87c2.3-7.2,4.5-14.4,6.8-21.6s4.3-14.3,6.5-21.4L409.6,357c-4.5,13.4-9,26.8-13.3,40.3a11.8,11.8,0,0,0-.8,4.1c0,2.6,1.8,3.8,5.2,3.4a26.1,26.1,0,0,1-.6,2.7L360,415.2c-4.8.9-7.5-.1-7.2-3.2.1-1.4.7-2.8.9-4.2q7.9-24.6,15.9-48.8l15.8-48.1a16.1,16.1,0,0,0,.8-4.1c0-2.7-1.8-3.9-5.5-3.8a16.2,16.2,0,0,1,.8-2.7l39.2-5.2c4.5-.6,6.9.6,6.6,3.5-.1,1.4-.6,2.7-.8,4.1q-5.1,16.2-10.5,32.4l45.4-7c3-9.3,6.1-18.5,9-27.8a12.9,12.9,0,0,0,.7-3.9c0-2.6-1.7-3.8-5-3.6l.6-2.6,35.9-4.8c4.1-.5,6.4.6,6.2,3.4a18.3,18.3,0,0,1-.9,3.9c-4.6,14.8-9.1,29.7-13.8,44.7s-9.3,30.2-13.9,45.4a16.9,16.9,0,0,0-.6,3.9c0,2.5,1.7,3.7,4.8,3.4l-.6,2.5-36.5,7c-4.5.9-6.9-.1-6.7-3a30.1,30.1,0,0,1,.9-4.1ZM587.6,291.9c-3.6,12.4-7.4,24.8-11,37.3s-7.5,25-11,37.6a14.7,14.7,0,0,0-.5,3.8c-.1,2.4,1.4,3.4,4.4,3.2a10.5,10.5,0,0,0-.6,2.4l-33.1,6.3c-4,.8-6.2-.2-6-2.9a27.4,27.4,0,0,1,.9-3.9c3.9-13.3,7.7-26.5,11.6-39.7s7.7-26.2,11.6-39.2l-19,2.7a28.8,28.8,0,0,0-8.1,2.2,21,21,0,0,0-5.9,4.9l-3.7.6c1.7-5.4,3.3-10.9,5.1-16.2,1.2-3.5,2.7-5.8,4.8-7.1s6.2-2.5,12.2-3.3l68.1-9.1a21.8,21.8,0,0,0,7.4-1.9,19,19,0,0,0,5.3-4.5l3.2-.4-4.5,15.1c-1,3.3-2.5,5.5-4.4,6.8s-5.6,2.3-11.1,3l-15.7,2.3Zm104.6,60.5L665,357.6c-4.1.8-6-.1-6-2.6,0-6.4,0-12.9.1-19.3l-33.8,6c-3.9,6-7.7,11.9-11.5,18a5.7,5.7,0,0,0-1.3,3c0,1.9,1.1,2.6,3.4,2.2-.2.8-.5,1.6-.7,2.3l-26.6,5.2a10.1,10.1,0,0,1-4.7-.1q-1.8-.7-1.8-2.1a6.4,6.4,0,0,1,1.4-3.6c11-15.7,21.3-31.5,31.8-47l30.6-45.4a5.6,5.6,0,0,0,1.2-2.7c0-2.1-1.6-3-4.8-2.6a15.5,15.5,0,0,0,.7-2.3l33.8-4.5a9.7,9.7,0,0,1,6,.9,4.4,4.4,0,0,1,2.7,4c.2,13.4.6,26.8,1,40.1s.6,26.7,1,40a2.7,2.7,0,0,0,1.4,2.6,5.4,5.4,0,0,0,3.7.5c-.1.7-.3,1.4-.4,2.2Zm-33-63.1-22.6,34.5,22.5-3.8c0-10.2.1-20.4.1-30.7Zm78.1,22.8c-2.2,8-4.5,15.9-6.6,23.9a11,11,0,0,0-.5,3.3c0,2.2,1.2,3.2,3.5,3a7.8,7.8,0,0,1-.4,2.1l-26.9,5.2c-3.2.6-4.9-.3-4.8-2.7s.4-2.3.6-3.5c3.7-13.3,7.3-26.5,10.9-39.7s7.1-26.2,10.5-39.2a13.9,13.9,0,0,0,.5-3.2c0-2-1.2-3-3.7-2.9a18,18,0,0,1,.6-2.2l50.6-6.8c8.3-1.1,14.3-.3,18.4,2.2s6,6.9,6,13.3a62.7,62.7,0,0,1-2.1,13c-2.4,9.2-5.9,15.9-10.4,20.2s-12.8,8.3-23.2,10.1l-23,3.9Zm11.6-44.8-7.6,29.2,11.8-1.9c4.9-.8,8.3-2.3,10.2-4.6s3.6-6.5,5.2-12.6a26.4,26.4,0,0,0,.9-6.2c0-2.4-.8-4.1-2.3-4.9s-4.6-.9-8.8-.3l-9.4,1.3Zm67.4-23.8,61.6-8.3c-.7,2.8-1.3,5.6-2.1,8.3a7,7,0,0,1-3.1,4.5,19.4,19.4,0,0,1-7.1,1.9l-23.7,3.5c-1.7,5.9-3.2,11.8-4.7,17.7l30.8-4.7c-.8,2.8-1.5,5.7-2.1,8.5a7.8,7.8,0,0,1-3,4.9,17.2,17.2,0,0,1-6.3,2.1l-16.7,2.7a11.4,11.4,0,0,0-5.1,1.8,6.8,6.8,0,0,0-2.3,4.1c-1.8,6.6-3.4,13.3-5.1,19.9l24.6-4.5a14.8,14.8,0,0,0,5.4-1.8,15.7,15.7,0,0,0,3.8-3.9l2.3-.4c-1.2,4.6-2.3,9.1-3.3,13.7-.7,2.8-1.7,4.7-3.1,5.8s-4.1,2-8.1,2.8l-43.7,8.4c-3.9.8-6-.1-5.9-2.8a18.1,18.1,0,0,1,.3-2.3c3.2-12.5,6.2-24.9,9.4-37.3l9.6-36.8a12.5,12.5,0,0,0,.4-3.1c0-1.8-1-2.8-3.2-2.7a17.7,17.7,0,0,0,.4-2Zm98.4,51,13.1-2.3a13.3,13.3,0,0,0,4.7-1.7,12.5,12.5,0,0,0,3.4-3.7l2.2-.3c-.9,3.6-1.7,7.3-2.5,11a12.2,12.2,0,0,1-3.8,6.8,15.2,15.2,0,0,1-7.4,3.2l-20.4,4c-7.8,1.5-13.6,1-17.3-1.6s-5.5-7.9-5.4-16c0-5.2,1.1-12,3.6-20.5a151.8,151.8,0,0,1,7.6-21.4c2.7-5.8,5.4-10.3,8.4-13.4,4.6-4.9,11.6-8,20.6-9.2L947,226c-.7,2.4-1.3,4.9-1.9,7.3a10.9,10.9,0,0,1-3.1,5.4c-1.4,1.2-3.5,1.9-6.4,2.4l-7.6,1c-6,.9-10.3,3.1-13.1,6.6s-6,11.8-8.8,23.4c-1.9,7.9-2.9,13.4-2.9,16.7s.9,4.9,2.6,5.7S910.5,295.3,914.7,294.5Z" transform="translate(62.4 88)"/><path class="cls-5" d="M755.4,309V294.2c3.6-.9,6.3-2.3,7.9-4.2s3.6-6.5,5.2-12.6a26.4,26.4,0,0,0,.9-6.2c0-2.4-.8-4.1-2.3-4.9s-4.6-.9-8.8-.3l-2.9.4V251.6l16.2-2.2c8.3-1.1,14.3-.3,18.4,2.2s6,6.9,6,13.3a62.7,62.7,0,0,1-2.1,13c-2.4,9.2-5.9,15.9-10.4,20.2s-12.8,8.3-23.2,10.1l-4.9.8Zm60.9-65.5,61.6-8.3c-.7,2.8-1.3,5.6-2.1,8.3a7,7,0,0,1-3.1,4.5,19.4,19.4,0,0,1-7.1,1.9l-23.7,3.5c-1.7,5.9-3.2,11.8-4.7,17.7l30.8-4.7c-.8,2.8-1.5,5.7-2.1,8.5a7.8,7.8,0,0,1-3,4.9,17.2,17.2,0,0,1-6.3,2.1l-16.7,2.7a11.4,11.4,0,0,0-5.1,1.8,6.8,6.8,0,0,0-2.3,4.1c-1.8,6.6-3.4,13.3-5.1,19.9l24.6-4.5a14.8,14.8,0,0,0,5.4-1.8,15.7,15.7,0,0,0,3.8-3.9l2.3-.4c-1.2,4.6-2.3,9.1-3.3,13.7-.7,2.8-1.7,4.7-3.1,5.8s-4.1,2-8.1,2.8l-43.7,8.4c-3.9.8-6-.1-5.9-2.8a18.1,18.1,0,0,1,.3-2.3c3.2-12.5,6.2-24.9,9.4-37.3l9.6-36.8a12.5,12.5,0,0,0,.4-3.1c0-1.8-1-2.8-3.2-2.7a17.7,17.7,0,0,0,.4-2Zm98.4,51,13.1-2.3a13.3,13.3,0,0,0,4.7-1.7,12.5,12.5,0,0,0,3.4-3.7l2.2-.3c-.9,3.6-1.7,7.3-2.5,11a12.2,12.2,0,0,1-3.8,6.8,15.2,15.2,0,0,1-7.4,3.2l-20.4,4c-7.8,1.5-13.6,1-17.3-1.6s-5.5-7.9-5.4-16c0-5.2,1.1-12,3.6-20.5a151.8,151.8,0,0,1,7.6-21.4c2.7-5.8,5.4-10.3,8.4-13.4,4.6-4.9,11.6-8,20.6-9.2L947,226c-.7,2.4-1.3,4.9-1.9,7.3a10.9,10.9,0,0,1-3.1,5.4c-1.4,1.2-3.5,1.9-6.4,2.4l-7.6,1c-6,.9-10.3,3.1-13.1,6.6s-6,11.8-8.8,23.4c-1.9,7.9-2.9,13.4-2.9,16.7s.9,4.9,2.6,5.7S910.5,295.3,914.7,294.5ZM755.4,251.6v14.8l-6.5.9-7.6,29.2,11.8-1.9,2.3-.4V309l-18.1,3.1c-2.2,8-4.5,15.9-6.6,23.9a11,11,0,0,0-.5,3.3c0,2.2,1.2,3.2,3.5,3a7.8,7.8,0,0,1-.4,2.1l-26.9,5.2c-3.2.6-4.9-.3-4.8-2.7s.4-2.3.6-3.5c3.7-13.3,7.3-26.5,10.9-39.7s7.1-26.2,10.5-39.2a13.9,13.9,0,0,0,.5-3.2c0-2-1.2-3-3.7-2.9a18,18,0,0,1,.6-2.2l34.4-4.6ZM647.9,337.7V321.9l11.2-1.9c0-10.2.1-20.4.1-30.7l-11.3,17.2V266l28.9-3.9a9.7,9.7,0,0,1,6,.9,4.4,4.4,0,0,1,2.7,4c.2,13.4.6,26.8,1,40.1s.6,26.7,1,40a2.7,2.7,0,0,0,1.4,2.6,5.4,5.4,0,0,0,3.7.5c-.1.7-.3,1.4-.4,2.2L665,357.6c-4.1.8-6-.1-6-2.6,0-6.4,0-12.9.1-19.3Zm0-71.7v40.5c-3.7,5.8-7.5,11.5-11.3,17.3l11.3-1.9v15.8l-22.6,4c-3.9,6-7.7,11.9-11.5,18a5.7,5.7,0,0,0-1.3,3c0,1.9,1.1,2.6,3.4,2.2-.2.8-.5,1.6-.7,2.3l-12.5,2.4V338.4l12.6-18.8,30.6-45.4a5.6,5.6,0,0,0,1.2-2.7c0-2.1-1.6-3-4.8-2.6a15.5,15.5,0,0,0,.7-2.3l4.9-.6Zm-45.2,23.7h.6c5.5-.7,9.3-1.8,11.1-3s3.4-3.5,4.4-6.8l4.5-15.1-3.2.4a19,19,0,0,1-5.3,4.5,21.8,21.8,0,0,1-7.4,1.9l-4.7.7ZM334,421.5l-62.8,12.1c-9.4,1.8-14.2.4-14.2-4.4,0-12.1.1-24.2.1-36.4l-26.8,4.6v-30l26.9-4.2V305.5l-26.6,32.6-.3.4V261.3l68-7.1a29.5,29.5,0,0,1,14.2,1.7c3.9,1.6,5.7,4.2,5.8,7.5.7,24.9,1.6,49.8,2.4,74.5s1.9,49.5,2.6,74.2a5.4,5.4,0,0,0,3.2,4.8c2.2,1,5,1.1,8.6.5a20.8,20.8,0,0,0-1.1,4.1ZM602.7,272.2v17.5l-15.1,2.2c-3.6,12.4-7.4,24.8-11,37.3s-7.5,25-11,37.6a14.7,14.7,0,0,0-.5,3.8c-.1,2.4,1.4,3.4,4.4,3.2a10.5,10.5,0,0,0-.6,2.4l-33.1,6.3c-4,.8-6.2-.2-6-2.9a27.4,27.4,0,0,1,.9-3.9c3.9-13.3,7.7-26.5,11.6-39.7s7.7-26.2,11.6-39.2l-19,2.7a28.8,28.8,0,0,0-8.1,2.2,21,21,0,0,0-5.9,4.9l-3.7.6c1.7-5.4,3.3-10.9,5.1-16.2,1.2-3.5,2.7-5.8,4.8-7.1s6.2-2.5,12.2-3.3l63.4-8.4Zm0,66.2c-6.3,9.4-12.6,18.8-19.2,28.2a6.4,6.4,0,0,0-1.4,3.6q0,1.4,1.8,2.1a10.1,10.1,0,0,0,4.7.1l14.1-2.8V338.4ZM441.5,392.5c2.3-7.2,4.5-14.4,6.8-21.6s4.3-14.3,6.5-21.4L409.6,357c-4.5,13.4-9,26.8-13.3,40.3a11.8,11.8,0,0,0-.8,4.1c0,2.6,1.8,3.8,5.2,3.4a26.1,26.1,0,0,1-.6,2.7L360,415.2c-4.8.9-7.5-.1-7.2-3.2.1-1.4.7-2.8.9-4.2q7.9-24.6,15.9-48.8l15.8-48.1a16.1,16.1,0,0,0,.8-4.1c0-2.7-1.8-3.9-5.5-3.8a16.2,16.2,0,0,1,.8-2.7l39.2-5.2c4.5-.6,6.9.6,6.6,3.5-.1,1.4-.6,2.7-.8,4.1q-5.1,16.2-10.5,32.4l45.4-7c3-9.3,6.1-18.5,9-27.8a12.9,12.9,0,0,0,.7-3.9c0-2.6-1.7-3.8-5-3.6l.6-2.6,35.9-4.8c4.1-.5,6.4.6,6.2,3.4a18.3,18.3,0,0,1-.9,3.9c-4.6,14.8-9.1,29.7-13.8,44.7s-9.3,30.2-13.9,45.4a16.9,16.9,0,0,0-.6,3.9c0,2.5,1.7,3.7,4.8,3.4l-.6,2.5-36.5,7c-4.5.9-6.9-.1-6.7-3A30.1,30.1,0,0,1,441.5,392.5Zm-211.2,4.9-54.5,9.4c-9.3,11.7-18.8,23.5-28.2,35.5-2.3,2.8-3.3,4.9-3.3,6,0,3.7,2.9,4.9,8.7,3.8-.6,1.6-1.3,3.2-1.9,4.7L84.2,469.7c-5,1-9,1.1-11.9.4s-4.2-2.1-4.2-4,1.3-4.9,3.3-7.1c27.4-31.9,53.8-63.6,79.8-94.3L225.5,277c1.8-2.1,2.5-3.8,2.5-5.2,0-4-3.8-5.7-11.3-4.9.5-1.4,1-2.9,1.7-4.4l11.9-1.2v77.2c-8.9,10.9-17.9,22-26.8,33.1l26.8-4.2Z" transform="translate(62.4 88)"/><path class="cls-7" d="M1072.5,17.3c4.7-8.4,8.5-9.4,11.1-5.6l42.9,77.7c2.9,4.3,9.4,6.5,15.2,6.2l98.4-10.4c7.4-.9,8.3,5.5,4.2,9.7L1161,168.5c-2.9,2.6-3.7,7.1-1.6,13.1l17.9,50.7c.9,2.8-2.7,4.9-4.3,2.9l-28.7-49.3c-3.1-5.6-2.1-12.9,3.8-18.7l54.5-55.1c3.9-4.1,2.8-9.1-3.5-8.8l-60.7,3.7c-8.4.6-15.9-2.5-20.1-7.8l-45.2-64.9c-3.2-4-4.6-9.3-.6-17ZM957.4,338.6,59.1,528.6c-13.9,3.3-32.4-9.7-42.9-16.4-4.4-3.1-4.9-5.5.3-6.9L931.2,332c3.9-.8,8.3-3.7,10.1-7.6l59.2-128.2c2.5-7.4,3.4-12.2.2-14.4l-96.8-52.2c-3.9-1.7-4.2-7,1-7.8l123.4-14.9c7.5-1.2,10.3-5.4,12.1-9l18.1-44.6a5,5,0,0,1,8.9-1.1l37,50.1a3.3,3.3,0,0,1-5,4.1l-30.3-30.3c-2.6-2.5-5.9-1.8-7.5,1.2l-10.7,23.8c-2.7,6.2-10.4,15.1-19.9,17.3l-68.8,10.2c-8.3,1.3-9.9,4.9-4.6,8.6l55.7,34.9c3.9,2.5,5.2,7,3.5,11.9L970.2,324.1c-2.3,7-4.4,12.8-12.8,14.5Zm218.4-156.2c-1-3.6,2.7-5.6,4.7-2.2l65.8,115.3c2.9,5.8-2.6,11-7.2,9.1l-138.4-72.3a10.3,10.3,0,0,0-11,1.6L994,319.6c-4.3,3.7-8.8,2.6-7.4-2.6l40.3-130.7c1.5-4.1,7.3-3.5,6.4.3l-15.5,80.9c-.9,6.9,3,8.5,9.9,3.7l61.7-49.8a16.1,16.1,0,0,1,16.6-1.7l89.1,39.4c3.1,1.2,6.7-1,5.7-4.6Z" transform="translate(62.4 88)"/><path class="cls-8" d="M1087.5,18.9l39,70.5c2.9,4.3,9.4,6.5,15.2,6.2l98.4-10.4c7.4-.9,8.3,5.5,4.2,9.7L1161,168.5c-2.9,2.6-3.7,7.1-1.6,13.1l17.9,50.7c.9,2.8-2.7,4.9-4.3,2.9l-28.7-49.3c-3.1-5.6-2.1-12.9,3.8-18.7l54.5-55.1c3.9-4.1,2.8-9.1-3.5-8.8l-60.7,3.7c-8.4.6-15.9-2.5-20.1-7.8L1087.5,55V18.9Zm0,216.9,2.2-1.9a10.3,10.3,0,0,1,11-1.6l138.4,72.3c4.6,1.9,10.1-3.3,7.2-9.1l-65.8-115.3c-2-3.4-5.7-1.4-4.7,2.2l25,72.1c1,3.6-2.6,5.8-5.7,4.6L1106,219.7a16.1,16.1,0,0,0-16.6,1.7l-1.9,1.6v12.8Zm0-141.3,11.9,11.9a3.3,3.3,0,0,0,5-4.1l-16.9-22.9Zm-15-77.2c4.7-8.4,8.5-9.4,11.1-5.6l3.9,7.2V55l-14.4-20.7c-3.2-4-4.6-9.3-.6-17Zm15,62.1-20.1-27.2a5,5,0,0,0-8.9,1.1l-18.1,44.6c-1.8,3.6-4.6,7.8-12.1,9L904.9,121.8c-5.2.8-4.9,6.1-1,7.8l96.8,52.2c3.2,2.2,2.3,7-.2,14.4L941.3,324.4c-1.8,3.9-6.2,6.8-10.1,7.6L16.5,505.3c-5.2,1.4-4.7,3.8-.3,6.9,10.5,6.7,29,19.7,42.9,16.4l898.3-190c8.4-1.7,10.5-7.5,12.8-14.5L1016.8,184c1.7-4.9.4-9.4-3.5-11.9l-55.7-34.9c-5.3-3.7-3.7-7.3,4.6-8.6l68.8-10.2c9.5-2.2,17.2-11.1,19.9-17.3l10.7-23.8c1.6-3,4.9-3.7,7.5-1.2l18.4,18.4V79.4Zm0,143.6v12.8L994,319.6c-4.3,3.7-8.8,2.6-7.4-2.6l40.3-130.7c1.5-4.1,7.3-3.5,6.4.3l-15.5,80.9c-.9,6.9,3,8.5,9.9,3.7Z" transform="translate(62.4 88)"/></svg>