<?xml version="1.0"?>
<svg xmlns="http://www.w3.org/2000/svg" height="512px" viewBox="0 0 512 512" width="512px" class=""><g><path d="m256 0c-141.160156 0-256 114.839844-256 256 0 101.636719 60.269531 193.722656 153.5625 234.613281 32.460938 14.191407 66.925781 21.386719 102.4375 21.386719 21.335938 0 42.550781-2.636719 63.058594-7.832031 14.480468-3.667969 23.242187-18.378907 19.570312-32.855469-3.667968-14.480469-18.382812-23.242188-32.855468-19.570312-16.167969 4.09375-32.914063 6.171874-49.773438 6.171874-28.007812 0-55.183594-5.671874-80.75-16.847656-73.605469-32.257812-121.164062-104.902344-121.164062-185.066406 0-111.335938 90.578124-201.914062 201.914062-201.914062s201.914062 90.578124 201.914062 201.914062c0 23.71875-4.089843 46.945312-12.160156 69.035156-7.726562 21.148438-26.078125 25.925782-40.671875 23.34375-14.722656-2.605468-30.457031-13.484375-30.457031-36.195312v-143.1875c0-14.933594-12.105469-27.042969-27.039062-27.042969-11.042969 0-20.53125 6.621094-24.734376 16.105469-19.046874-13.042969-42.074218-20.683594-66.851562-20.683594-65.410156 0-118.625 53.214844-118.625 118.625s53.214844 118.625 118.625 118.625c27.1875 0 52.261719-9.199219 72.289062-24.640625 3.765626 8.507813 8.863282 16.355469 15.25 23.351563 13.394532 14.671874 31.902344 24.722656 52.117188 28.296874 20.164062 3.566407 40.925781.496094 58.464844-8.644531 19.707031-10.277343 34.378906-27.355469 42.433594-49.394531 10.25-28.050781 15.445312-57.523438 15.445312-87.59375 0-141.160156-114.839844-256-256-256zm0 320.539062c-35.585938 0-64.539062-28.949218-64.539062-64.539062s28.953124-64.539062 64.539062-64.539062c35.589844 0 64.539062 28.949218 64.539062 64.539062s-28.949218 64.539062-64.539062 64.539062zm0 0" fill="#596775" data-original="#596775" class="active-path" style="fill:#FFFFFF" data-old_color="#ffffff"/><g fill="#46525e"><path d="m436.933594 75.066406c-11.78125 11.78125-12.859375 30.457032-2.65625 43.632813 30.363281 39.21875 46.816406 87.023437 46.816406 137.300781 0 26.441406-4.566406 52.34375-13.566406 76.988281-5.441406 14.882813-14.757813 25.847657-27.695313 32.59375-11.527343 6.007813-25.304687 8.007813-38.789062 5.621094-13.539063-2.398437-25.855469-9.039063-34.675781-18.703125-7.175782-7.855469-11.773438-17.148438-13.765626-27.722656 13.859376-19.410156 22.023438-43.160156 22.023438-68.777344v-87.003906c0-14.933594-12.105469-27.042969-27.039062-27.042969-1.3125 0-2.601563.097656-3.863282.28125v113.765625c0 23.464844-9.160156 45.496094-25.695312 62.027344-27.9375 27.9375-70.1875 33.054687-103.367188 15.347656-14.003906-7.472656-31.273437-4.757812-42.5 6.464844 21.480469 21.480468 51.136719 34.785156 83.839844 34.785156 27.191406 0 52.269531-9.203125 72.300781-24.648438 3.757813 8.511719 8.851563 16.359376 15.242188 23.359376 13.390625 14.671874 31.902343 24.722656 52.117187 28.296874 20.164063 3.566407 40.921875.496094 58.460938-8.644531 19.707031-10.277343 34.382812-27.355469 42.433594-49.394531 10.25-28.050781 15.445312-57.523438 15.445312-87.59375 0-70.578125-28.710938-134.578125-75.066406-180.933594zm0 0" data-original="#000000" class="" style="fill:#FFFFFF" data-old_color="#ffffff"/><path d="m338.628906 471.3125c-.320312-1.273438-.734375-2.496094-1.21875-3.675781l-25.941406 6.570312c-18.027344 4.570313-36.691406 6.886719-55.46875 6.886719-31.226562 0-61.523438-6.324219-90.03125-18.789062-16.941406-7.421876-32.746094-16.785157-47.242188-27.964844-13.214843-10.195313-31.890624-9.167969-43.699218 2.632812 22.203125 22.210938 48.671875 40.550782 78.535156 53.640625 32.460938 14.191407 66.925781 21.386719 102.4375 21.386719 21.335938 0 42.550781-2.636719 63.058594-7.832031 14.480468-3.667969 23.242187-18.378907 19.570312-32.855469zm0 0" data-original="#000000" class="" style="fill:#FFFFFF" data-old_color="#ffffff"/></g></g> </svg>
