<?xml version="1.0"?>
<svg xmlns="http://www.w3.org/2000/svg" id="icons" enable-background="new 0 0 64 64" height="512px" viewBox="0 0 64 64" width="512px" class=""><g><path d="m10.003 33.992h18c.553 0 1-.447 1-1v-4c0-.553-.447-1-1-1h-18c-.553 0-1 .447-1 1v4c0 .553.447 1 1 1zm1-4h16v2h-16z" data-original="#000000" class="active-path" data-old_color="#000000" fill="#fdb931"/><path d="m26.003 35.992c-1.654 0-3 1.346-3 3s1.346 3 3 3 3-1.346 3-3-1.346-3-3-3zm0 4c-.552 0-1-.448-1-1s.448-1 1-1 1 .448 1 1-.448 1-1 1z" data-original="#000000" class="active-path" data-old_color="#000000" fill="#fdb931"/><path d="m19.003 35.992c-1.654 0-3 1.346-3 3s1.346 3 3 3 3-1.346 3-3-1.346-3-3-3zm0 4c-.552 0-1-.448-1-1s.448-1 1-1 1 .448 1 1-.448 1-1 1z" data-original="#000000" class="active-path" data-old_color="#000000" fill="#fdb931"/><path d="m12.003 41.992c1.654 0 3-1.346 3-3s-1.346-3-3-3-3 1.346-3 3 1.346 3 3 3zm0-4c.552 0 1 .448 1 1s-.448 1-1 1-1-.448-1-1 .448-1 1-1z" data-original="#000000" class="active-path" data-old_color="#000000" fill="#fdb931"/><path d="m26.003 42.992c-1.654 0-3 1.346-3 3s1.346 3 3 3 3-1.346 3-3-1.346-3-3-3zm0 4c-.552 0-1-.448-1-1s.448-1 1-1 1 .448 1 1-.448 1-1 1z" data-original="#000000" class="active-path" data-old_color="#000000" fill="#fdb931"/><path d="m19.003 42.992c-1.654 0-3 1.346-3 3s1.346 3 3 3 3-1.346 3-3-1.346-3-3-3zm0 4c-.552 0-1-.448-1-1s.448-1 1-1 1 .448 1 1-.448 1-1 1z" data-original="#000000" class="active-path" data-old_color="#000000" fill="#fdb931"/><path d="m12.003 48.992c1.654 0 3-1.346 3-3s-1.346-3-3-3-3 1.346-3 3 1.346 3 3 3zm0-4c.552 0 1 .448 1 1s-.448 1-1 1-1-.448-1-1 .448-1 1-1z" data-original="#000000" class="active-path" data-old_color="#000000" fill="#fdb931"/><path d="m26.003 49.992c-1.654 0-3 1.346-3 3s1.346 3 3 3 3-1.346 3-3-1.346-3-3-3zm0 4c-.552 0-1-.448-1-1s.448-1 1-1 1 .448 1 1-.448 1-1 1z" data-original="#000000" class="active-path" data-old_color="#000000" fill="#fdb931"/><path d="m19.003 49.992c-1.654 0-3 1.346-3 3s1.346 3 3 3 3-1.346 3-3-1.346-3-3-3zm0 4c-.552 0-1-.448-1-1s.448-1 1-1 1 .448 1 1-.448 1-1 1z" data-original="#000000" class="active-path" data-old_color="#000000" fill="#fdb931"/><path d="m12.003 55.992c1.654 0 3-1.346 3-3s-1.346-3-3-3-3 1.346-3 3 1.346 3 3 3zm0-4c.552 0 1 .448 1 1s-.448 1-1 1-1-.448-1-1 .448-1 1-1z" data-original="#000000" class="active-path" data-old_color="#000000" fill="#fdb931"/><path d="m41.988 15.012h-.075c-.314-2.459-1.773-4.652-3.925-5.905v-.421c0-.051-.021-.096-.029-.145-.011-.073-.017-.146-.043-.215-.024-.063-.064-.114-.101-.171-.033-.052-.06-.105-.103-.15-.055-.059-.122-.099-.189-.143-.037-.024-.064-.06-.105-.079-.01-.005-.021-.008-.03-.013-.008-.003-.015-.006-.023-.009-2.12-.993-4.622-.994-6.755-.003-.005.002-.01.003-.015.006-.011.005-.021.008-.032.013-.046.021-.076.061-.117.088-.063.042-.127.079-.179.133-.043.047-.07.102-.104.154-.036.056-.076.106-.101.169-.026.068-.031.141-.043.214-.008.05-.029.095-.029.146v.422c-2.156 1.253-3.618 3.447-3.933 5.908h-.069c-.553 0-1 .447-1 1v3c0 .553.447 1 1 1h16c.553 0 1-.447 1-1v-3c0-.552-.447-.999-1-.999zm-11.998-3.472v.47c0 .553.447 1 1 1s1-.447 1-1v-2.656c1.291-.454 2.713-.452 3.998.002v2.654c0 .553.447 1 1 1s1-.447 1-1v-.464c1.001.903 1.674 2.128 1.903 3.466h-11.812c.231-1.341.906-2.569 1.911-3.472zm10.998 6.472h-14v-1h14z" data-original="#000000" class="active-path" data-old_color="#000000" fill="#fdb931"/><path d="m47.998 28.006h3c.553 0 1-.447 1-1s-.447-1-1-1h-3c-.553 0-1 .447-1 1s.447 1 1 1z" data-original="#000000" class="active-path" data-old_color="#000000" fill="#2D5BFF"/><path d="m50.998 31.006h-4.001c-.553 0-1 .447-1 1s.447 1 1 1h4.001c.553 0 1-.447 1-1s-.447-1-1-1z" data-original="#000000" class="active-path" data-old_color="#000000" fill="#2D5BFF"/><path d="m50.998 36.006h-3c-.553 0-1 .447-1 1s.447 1 1 1h3c.553 0 1-.447 1-1s-.447-1-1-1z" data-original="#000000" class="active-path" data-old_color="#000000" fill="#2D5BFF"/><path d="m50.998 41.006h-1.999c-.553 0-1 .447-1 1s.447 1 1 1h1.999c.553 0 1-.447 1-1s-.447-1-1-1z" data-original="#000000" class="active-path" data-old_color="#000000" fill="#2D5BFF"/><path d="m50.998 46.006h-3c-.553 0-1 .447-1 1s.447 1 1 1h3c.553 0 1-.447 1-1s-.447-1-1-1z" data-original="#000000" class="active-path" data-old_color="#000000" fill="#2D5BFF"/><path d="m50.998 51.006h-4.001c-.553 0-1 .447-1 1s.447 1 1 1h4.001c.553 0 1-.447 1-1s-.447-1-1-1z" data-original="#000000" class="active-path" data-old_color="#000000" fill="#2D5BFF"/><path d="m58.995 8.002c-.001-.127-.026-.253-.075-.372-.051-.123-.124-.234-.217-.326l-6.997-7.002c-.092-.093-.203-.166-.326-.217-.122-.051-.252-.077-.382-.077h-31.995c-.553 0-1 .447-1 1v22.984h-10c-1.654 0-3 1.346-3 3v4 26 4c0 1.654 1.346 3 3 3h22c1.654 0 3-1.346 3-3v-1.004h24.994c.553 0 1-.447 1-1v-50.974s0 0 0-.001v-.001c0-.004-.002-.007-.002-.01zm-6.997-4.579 3.586 3.589h-3.586zm-44.995 23.569c0-.552.448-1 1-1h22c.552 0 1 .448 1 1v4 26c0 .552-.448 1-1 1h-22c-.552 0-1-.448-1-1v-26zm23 35h-22c-.552 0-1-.448-1-1v-1.185c.314.112.647.185 1 .185h22c.353 0 .686-.072 1-.185v1.185c0 .552-.448 1-1 1zm3-5v-3.986h8.992c.553 0 1-.447 1-1s-.447-1-1-1h-8.992v-3h8.992c.553 0 1-.447 1-1s-.447-1-1-1h-8.992v-3h8.992c.553 0 1-.447 1-1s-.447-1-1-1h-8.992v-3h8.992c.553 0 1-.447 1-1s-.447-1-1-1h-8.992v-3h8.992c.553 0 1-.447 1-1s-.447-1-1-1h-8.992v-.014-2.986h8.992c.553 0 1-.447 1-1s-.447-1-1-1h-9.172c-.411-1.169-1.514-2.014-2.82-2.014h-10v-21.984h29.995v6.004c0 .553.447 1 1 1h5.999v48.977h-23.994z" data-original="#000000" class="active-path" data-old_color="#000000" fill="#2D5BFF"/></g> </svg>
