<?xml version="1.0"?>
<svg xmlns="http://www.w3.org/2000/svg" height="512px" viewBox="0 0 512 512" width="512px"><g><path d="m503.464844 494.933594h-8.53125v-469.332032c0-14.140624-11.460938-25.601562-25.601563-25.601562h-426.664062c-14.140625 0-25.601563 11.460938-25.601563 25.601562v469.332032h-8.53125c-4.714844 0-8.535156 3.820312-8.535156 8.53125 0 4.714844 3.820312 8.535156 8.535156 8.535156h494.929688c4.714844 0 8.535156-3.820312 8.535156-8.535156 0-4.710938-3.820312-8.53125-8.535156-8.53125zm-435.199219-443.734375h375.46875v443.734375h-375.46875zm380.46875-17.066407h-385.46875l-17.066406-17.066406h419.601562zm-414.601563-5 17.066407 17.066407v448.734375h-17.066407zm426.667969 465.800782v-448.734375l17.066407-17.066407v465.800782zm0 0" data-original="#000000" class="active-path" data-old_color="#000000" fill="#2D5BFF"/><path d="m238.933594 68.265625h-145.066406c-4.714844 0-8.535157 3.820313-8.535157 8.535156v392.53125c0 4.714844 3.820313 8.535157 8.535157 8.535157h145.066406c4.710937 0 8.53125-3.820313 8.53125-8.535157v-392.53125c0-4.714843-3.820313-8.535156-8.53125-8.535156zm-8.535156 392.535156h-128v-375.46875h128zm0 0" data-original="#000000" class="active-path" data-old_color="#000000" fill="#2D5BFF"/><path d="m418.132812 68.265625h-145.066406c-4.710937 0-8.53125 3.820313-8.53125 8.535156v392.53125c0 4.714844 3.820313 8.535157 8.53125 8.535157h145.066406c4.714844 0 8.535157-3.820313 8.535157-8.535157v-392.53125c0-4.714843-3.820313-8.535156-8.535157-8.535156zm-8.53125 392.535156h-128v-375.46875h128zm0 0" data-original="#000000" class="active-path" data-old_color="#000000" fill="#2D5BFF"/><path d="m309.699219 287.632812c3.347656 3.234376 8.671875 3.1875 11.964843-.105468 3.289063-3.289063 3.335938-8.613282.101563-11.960938l-17.066406-17.066406c-3.347657-3.234375-8.671875-3.1875-11.960938.105469-3.292969 3.289062-3.339843 8.613281-.105469 11.960937zm0 0" data-original="#000000" class="active-path" data-old_color="#000000" fill="#2D5BFF"/><path d="m190.234375 287.632812c3.332031 3.332032 8.734375 3.332032 12.066406 0l17.066407-17.066406c3.234374-3.347656 3.1875-8.671875-.105469-11.960937-3.289063-3.292969-8.613281-3.339844-11.960938-.105469l-17.066406 17.066406c-3.332031 3.332032-3.332031 8.734375 0 12.066406zm0 0" data-original="#000000" class="active-path" data-old_color="#000000" fill="#2D5BFF"/><path d="m119.464844 128c2.265625 0 4.433594-.898438 6.035156-2.5l17.066406-17.066406c3.234375-3.347656 3.1875-8.671875-.105468-11.960938-3.289063-3.292968-8.613282-3.339844-11.960938-.105468l-17.066406 17.066406c-2.441406 2.441406-3.167969 6.109375-1.847656 9.296875 1.320312 3.191406 4.429687 5.269531 7.878906 5.269531zm0 0" data-original="#000000" class="active-path" data-old_color="#000000" fill="#2D5BFF"/><path d="m119.464844 170.667969c2.265625 0 4.433594-.902344 6.035156-2.5l59.734375-59.734375c3.234375-3.347656 3.1875-8.671875-.105469-11.960938-3.292968-3.292968-8.613281-3.339844-11.960937-.105468l-59.734375 59.734374c-2.441406 2.4375-3.167969 6.109376-1.847656 9.296876 1.320312 3.1875 4.429687 5.265624 7.878906 5.269531zm0 0" data-original="#000000" class="active-path" data-old_color="#000000" fill="#2D5BFF"/><path d="m298.667969 128c2.261719 0 4.433593-.898438 6.03125-2.5l17.066406-17.066406c3.234375-3.347656 3.1875-8.671875-.101563-11.960938-3.292968-3.292968-8.617187-3.339844-11.964843-.105468l-17.066407 17.066406c-2.4375 2.441406-3.167968 6.109375-1.847656 9.296875 1.320313 3.191406 4.429688 5.269531 7.882813 5.269531zm0 0" data-original="#000000" class="active-path" data-old_color="#000000" fill="#2D5BFF"/><path d="m298.667969 170.667969c2.261719 0 4.433593-.902344 6.03125-2.5l59.734375-59.734375c3.234375-3.347656 3.1875-8.671875-.105469-11.960938-3.289063-3.292968-8.613281-3.339844-11.960937-.105468l-59.734376 59.734374c-2.4375 2.4375-3.167968 6.109376-1.847656 9.296876 1.320313 3.1875 4.429688 5.265624 7.882813 5.269531zm0 0" data-original="#000000" class="active-path" data-old_color="#000000" fill="#2D5BFF"/></g> </svg>
