<?xml version="1.0"?>
<svg xmlns="http://www.w3.org/2000/svg" height="512px" viewBox="0 0 511 512" width="512px" class=""><g><path d="m185.160156 352c-5.507812 0-9.996094 4.488281-9.996094 10s4.488282 10 9.996094 10c5.507813 0 9.996094-4.488281 9.996094-10s-4.488281-10-9.996094-10zm0 0" data-original="#000000" class="active-path" data-old_color="#000000" fill="#795548"/><path d="m329.089844 352c-5.507813 0-9.996094 4.488281-9.996094 10s4.488281 10 9.996094 10c5.507812 0 9.996094-4.488281 9.996094-10s-4.488282-10-9.996094-10zm0 0" data-original="#000000" class="active-path" data-old_color="#000000" fill="#795548"/><path d="m502.003906 452h-2.996094v-302h3.496094c3.40625 0 6.582032-1.738281 8.417969-4.609375 1.839844-2.875 2.085937-6.484375.65625-9.582031l-59.96875-130c-1.632813-3.539063-5.175781-5.808594-9.074219-5.808594h-370.820312c-3.898438 0-7.441406 2.269531-9.074219 5.808594l-59.972656 130c-1.429688 3.097656-1.179688 6.707031.65625 9.582031 1.835937 2.871094 5.011719 4.609375 8.417969 4.609375h3.5v302h-4.996094c-5.519532 0-9.746094 4.476562-9.746094 10v40c0 5.523438 4.226562 10 9.746094 10h491.757812c5.519532 0 10.246094-4.476562 10.246094-10v-40c0-5.523438-4.726562-10-10.246094-10zm-132.933594-80h69.964844v20h-79.921875c-.011719 0-.023437-.003906-.039062-.003906h-39.980469c-.011719 0-.023438.003906-.039062.003906h-21.949219v-60h141.929687v20h-69.964844c-5.507812 0-9.996093 4.488281-9.996093 10s4.488281 10 9.996093 10zm69.964844 40v40h-69.964844v-40zm-89.957031 0v40h-19.988281v-40zm-61.96875-100c-5.519531 0-9.996094 4.476562-9.996094 10v80c0 5.523438 4.476563 10 9.996094 10h21.988281v40h-103.949218v-40h21.992187c5.519531 0 9.992187-4.476562 9.992187-10v-80c0-5.523438-4.472656-10-9.992187-10h-151.925781v-34.015625l121.1875-127.984375h121.445312l121.1875 127.984375v34.015625zm-131.933594 79.996094c-.015625 0-.027343.003906-.039062.003906h-79.921875v-20h69.964844c5.507812 0 9.996093-4.488281 9.996093-10s-4.488281-10-9.996093-10h-69.964844v-20h141.929687v60h-21.949219c-.015624 0-.027343-.003906-.039062-.003906zm29.984375 20.003906v40h-19.988281v-40zm-76.191406-262-33.753906 35.816406v-35.816406zm64.171875-130h7.625l25.371094 55-25.371094 55h-7.203125l-27.519531-59.65625zm-37.574219 27.628906-12.746094-27.628906h27.613282zm125.160156-27.628906 25.371094 55-25.371094 55h-7.203124l-25.371094-55 25.371094-55zm80.382813 0 27.097656 50.34375-27.519531 59.65625h-7.203125l-25.371094-55 25.371094-55zm22.707031 0h27.613282l-12.746094 27.628906zm-1.113281 110 17.359375-37.628906 20.25 37.628906zm-51.234375 0h-28.726562l14.363281-31.136719zm-14.363281-78.863281-14.363281-31.136719h28.726562zm-129.183594 99.863281-92.707031 97.902344v-33.933594l60.285156-63.96875zm63.585937-21h-28.726562l14.363281-31.136719zm-14.363281-78.863281-14.363281-31.136719h28.726562zm-65.597656 78.863281h-37.609375l20.25-37.628906zm-76.332031 282h69.964844v40h-69.964844zm271.113281-261h32.421875l60.285156 63.972656v33.933594zm58.953125-1h33.753906v35.816406zm53.746094 0h19.988281v302h-19.988281zm27.855468-20.003906-63.867187.003906-32.476563-60.34375 22.90625-49.65625h22.695313zm-408.773437-109.996094h22.695313l22.90625 49.65625-32.476563 60.34375-63.867187-.003906zm-22.886719 130v302h-19.988281v-302zm436.789063 342h-471.773438v-20h471.773438zm0 0" data-original="#000000" class="active-path" data-old_color="#000000" stroke-width="1" fill="#795548"/></g> </svg>
